<?xml version="1.0" standalone="no"?>
<!DOCTYPE svg PUBLIC "-//W3C//DTD SVG 20010904//EN"
 "http://www.w3.org/TR/2001/REC-SVG-20010904/DTD/svg10.dtd">
<svg version="1.0" xmlns="http://www.w3.org/2000/svg"
 width="672.000000pt" height="672.000000pt" viewBox="0 0 672.000000 672.000000"
 preserveAspectRatio="xMidYMid meet">
<metadata>
Created by potrace 1.14, written by Peter Selinger 2001-2017
</metadata>
<g transform="translate(0.000000,672.000000) scale(0.100000,-0.100000)"
fill="#000000" stroke="none">
<path d="M1878 6559 c-378 -27 -611 -97 -854 -257 -402 -265 -686 -739 -784
-1310 -53 -315 -55 -358 -55 -1617 0 -1200 2 -1280 41 -1555 51 -364 163 -671
342 -940 129 -195 275 -343 456 -462 214 -141 390 -202 706 -244 149 -19 890
-32 980 -16 49 9 51 10 17 11 -50 1 -217 28 -292 47 -399 99 -733 338 -974
696 -163 244 -276 539 -330 868 -50 307 -55 447 -55 1580 -1 925 2 1080 17
1255 39 448 111 723 263 1013 239 456 614 760 1079 876 74 18 242 46 292 47
l38 2 -45 8 c-57 10 -698 9 -842 -2z"/>
<path d="M3985 6561 c-22 -5 -1 -10 80 -19 364 -43 643 -167 918 -407 291
-254 521 -685 600 -1125 60 -331 67 -499 67 -1650 0 -1151 -7 -1319 -67 -1650
-79 -440 -309 -871 -600 -1125 -274 -240 -528 -353 -903 -405 l-125 -17 58 -8
c99 -13 867 1 997 19 250 34 394 75 559 162 352 182 621 496 790 921 109 273
155 518 181 963 15 258 8 2283 -9 2450 -43 429 -103 662 -246 955 -173 356
-418 610 -740 770 -196 97 -387 143 -690 165 -152 11 -821 12 -870 1z"/>
</g>
</svg>
