<?xml version="1.0" encoding="utf-8"?>
<svg width="64px" height="64px" viewBox="0 0 64 64" version="1.1" xmlns:xlink="http://www.w3.org/1999/xlink" xmlns="http://www.w3.org/2000/svg">
  <defs>
    <linearGradient gradientUnits="objectBoundingBox" x1="0.5" y1="0" x2="0.5" y2="1" id="gradient_1">
      <stop offset="2.2153628%" stop-color="#FF4343" />
      <stop offset="100%" stop-color="#FFFFFF" />
    </linearGradient>
  </defs>
  <g id="Group-14">
    <path d="M32 64C49.6731 64 64 49.6731 64 32C64 14.3269 49.6731 0 32 0C14.3269 0 0 14.3269 0 32C0 49.6731 14.3269 64 32 64Z" id="Oval" fill="url(#gradient_1)" fill-rule="evenodd" stroke="none" />
    <g id="Group" transform="translate(20 20)">
      <path d="M0 0L24 0L24 24L0 24L0 0Z" id="Path" fill="none" fill-rule="evenodd" stroke="none" />
      <path d="M11.9999 17C15.6623 17 18.8649 18.5751 20.607 20.9247L18.765 21.796C17.3473 20.1157 14.8473 19 11.9999 19C9.15248 19 6.65252 20.1157 5.23479 21.796L3.39355 20.9238C5.13576 18.5747 8.33796 17 11.9999 17ZM11.9999 2C14.7613 2 16.9999 4.23858 16.9999 7L16.9999 10C16.9999 12.7614 14.7613 15 11.9999 15C9.23847 15 6.9999 12.7614 6.9999 10L6.9999 7C6.9999 4.23858 9.23847 2 11.9999 2Z" id="Shape" fill="#000000" stroke="none" />
    </g>
  </g>
</svg>