<?xml version="1.0" encoding="utf-8"?>
<svg width="64px" height="64px" viewBox="0 0 64 64" version="1.1" xmlns:xlink="http://www.w3.org/1999/xlink" xmlns="http://www.w3.org/2000/svg">
  <defs>
    <linearGradient gradientUnits="objectBoundingBox" x1="0.5" y1="0" x2="0.5" y2="1" id="gradient_1">
      <stop offset="0%" stop-color="#FFFF00" />
      <stop offset="100%" stop-color="#FFFFFF" />
    </linearGradient>
  </defs>
  <g id="Group-13">
    <path d="M32 64C49.6731 64 64 49.6731 64 32C64 14.3269 49.6731 0 32 0C14.3269 0 0 14.3269 0 32C0 49.6731 14.3269 64 32 64Z" id="Oval-Copy-2" fill="url(#gradient_1)" fill-rule="evenodd" stroke="none" />
    <g id="Group" transform="translate(20 20)">
      <path d="M0 0L24 0L24 24L0 24L0 0Z" id="Path" fill="none" fill-rule="evenodd" stroke="none" />
      <path d="M5 7L7 7L7 17L5 17L5 7ZM1 10L3 10L3 14L1 14L1 10ZM9 2L11 2L11 20L9 20L9 2ZM13 4L15 4L15 22L13 22L13 4ZM17 7L19 7L19 17L17 17L17 7ZM21 10L23 10L23 14L21 14L21 10Z" id="Shape" fill="#000000" stroke="none" />
    </g>
  </g>
</svg>