<?xml version="1.0" encoding="utf-8"?>
<svg width="96.927734px" height="27px" viewBox="0 0 96.927734 27" version="1.1" xmlns:xlink="http://www.w3.org/1999/xlink" xmlns="http://www.w3.org/2000/svg">
  <defs>
    <path d="M10.9271 0C7.26367 0.00849235 5.86096 0.391592 4.49602 1.10684L4.49602 1.10684L4.41201 1.15118C3.00647 1.90323 1.90394 3.00629 1.15161 4.4113L1.15161 4.4113C0.400233 5.81631 0 7.21378 0 11.0372L0 11.0372L0 16.077C0.00755157 19.739 0.391738 21.1412 1.10631 22.5057L1.10631 22.5057L1.15161 22.5896C1.90394 23.9947 3.00647 25.0968 4.41201 25.8488L4.41201 25.8488C5.78922 26.5848 7.15983 26.984 10.8138 27L10.8138 27L11.0404 27L15.9687 27C19.7172 27 21.135 26.6169 22.5131 25.8941L22.5131 25.8941L22.5971 25.8488C24.0027 25.0968 25.1061 23.9947 25.8585 22.5896L25.8585 22.5896C26.5947 21.2129 26.994 19.8428 27.0091 16.1902L27.0091 16.1902L27.0101 15.9637L27.0101 11.0372C27.0101 7.29021 26.6259 5.87293 25.9028 4.49528L25.9028 4.49528L25.8585 4.4113C25.1061 3.00629 24.0027 1.90323 22.5971 1.15118L22.5971 1.15118C21.1916 0.400084 19.7936 0 15.9687 0L15.9687 0L10.9271 0ZM16.0679 1.0455C19.3282 1.05022 20.6941 1.31914 22.1044 2.07308L22.1044 2.07308C23.3277 2.72793 24.2811 3.68096 24.9362 4.90386L24.9362 4.90386L24.9787 4.98501C25.7018 6.3636 25.9642 7.762 25.9642 11.0372L25.9642 11.0372L25.9642 15.9637L25.9632 16.1883C25.95 19.3597 25.6829 20.7006 24.9362 22.0971L24.9362 22.0971C24.2811 23.32 23.3277 24.273 22.1044 24.9269L22.1044 24.9269L22.0232 24.9694C20.6441 25.6931 19.2452 25.9554 15.9687 25.9554L15.9687 25.9554L11.0404 25.9554L10.8157 25.9545C7.64313 25.9413 6.30179 25.6733 4.90475 24.9269L4.90475 24.9269C3.68139 24.273 2.72801 23.32 2.07385 22.0971L2.07385 22.0971L2.03137 22.0159C1.31397 20.6506 1.05156 19.272 1.04495 16.076L1.04495 16.076L1.04495 11.0372C1.04495 7.70728 1.31209 6.32774 2.07385 4.90386L2.07385 4.90386C2.72801 3.68096 3.68139 2.72793 4.90475 2.07308L4.90475 2.07308L4.98592 2.03061C6.35182 1.31443 7.73092 1.05211 10.9281 1.0455L10.9281 1.0455L10.9271 1.0455L10.9281 1.0455L16.0679 1.0455Z" id="path_1" />
    <clipPath id="clip_1">
      <use xlink:href="#path_1" clip-rule="evenodd" fill-rule="evenodd" />
    </clipPath>
  </defs>
  <g id="Group-15">
    <path d="M36.489 19.3997L33.2494 8.77863L35.5658 8.79845L37.6378 15.6008L39.739 8.79845L41.7326 8.79845L43.8244 15.6008L45.9058 8.79845L48.2232 8.79845L44.9826 19.3997L43.1363 19.3997L40.7311 12.1067L38.3354 19.3997L36.489 19.3997Z" id="Fill-1" fill="#000000" fill-rule="evenodd" stroke="none" />
    <path d="M48.8115 19.4003L51.1779 19.4003L51.1779 8.79902L48.8115 8.79902L48.8115 19.4003ZM48.8115 7.18924L51.1779 7.18924L51.1779 5.01992L48.8115 5.01992L48.8115 7.18924Z" id="Fill-2" fill="#000000" fill-rule="evenodd" stroke="none" />
    <path d="M70.1262 8.79854L61.9459 8.79854L61.9459 10.8697L66.4448 10.8697L60.8302 19.0715L60.8302 17.3286L55.4695 17.3286L61.0652 9.13258L61.0652 8.79854L52.3365 8.79854L52.3365 10.8697L57.3838 10.8697L51.7673 19.0752L51.7673 19.3998L60.8273 19.3998L60.8302 19.3998L69.8911 19.3998L69.8911 17.3286L64.5295 17.3286L70.1262 9.13258L70.1262 8.79854Z" id="Fill-3" fill="#000000" fill-rule="evenodd" stroke="none" />
    <path d="M74.9086 10.5751C75.7657 10.5751 76.3943 10.8403 76.7936 11.3706C77.0759 11.7452 77.2552 12.284 77.3411 12.97L72.1447 12.97C72.2532 12.3633 72.4467 11.8556 72.7479 11.4734C73.2198 10.8743 73.9401 10.5751 74.9086 10.5751L74.9086 10.5751ZM78.59 14.7562L79.7491 14.7562C79.8407 13.4871 79.7 12.384 79.3272 11.4489C78.9534 10.5129 78.3832 9.78818 77.613 9.27487C76.8446 8.76061 75.9101 8.50395 74.8104 8.50395C73.7692 8.50395 72.8526 8.73985 72.0607 9.2107C71.2687 9.68156 70.6495 10.344 70.2049 11.1989C69.7593 12.0519 69.5375 13.0587 69.5375 14.2165C69.5375 15.2903 69.765 16.2386 70.219 17.0633C70.675 17.888 71.3083 18.5325 72.1201 18.9967C72.931 19.461 73.874 19.694 74.9473 19.694C75.9686 19.694 76.9031 19.4289 77.7508 18.8995C78.5984 18.3683 79.2252 17.6257 79.6311 16.6708L77.2939 15.964C77.0645 16.4547 76.7389 16.8293 76.3169 17.0878C75.895 17.3464 75.3928 17.4756 74.8104 17.4756C73.9061 17.4756 73.2198 17.1803 72.7479 16.5915C72.3788 16.131 72.1588 15.5149 72.0796 14.7562L77.4025 14.7562L78.59 14.7562Z" id="Fill-4" fill="#000000" fill-rule="evenodd" stroke="none" />
    <path d="M80.5743 19.3993L82.9993 19.3993L82.9993 16.9753L80.5743 16.9753L80.5743 19.3993Z" id="Fill-6" fill="#000000" fill-rule="evenodd" stroke="none" />
    <path d="M90.5628 16.0519C90.4844 16.2945 90.3325 16.553 90.1069 16.8276C89.8803 17.1022 89.5773 17.3343 89.1988 17.5249C88.8184 17.7146 88.3605 17.8089 87.8234 17.8089C87.4506 17.8089 87.1372 17.7504 86.8852 17.6325C86.6341 17.5155 86.4425 17.3569 86.3112 17.1569C86.18 16.9569 86.1149 16.7266 86.1149 16.4643C86.1149 16.235 86.1659 16.0359 86.2669 15.8661C86.3688 15.6962 86.5142 15.5452 86.7039 15.4141C86.8937 15.2839 87.1259 15.1687 87.4006 15.0706C87.6828 14.9791 88.0066 14.8951 88.3738 14.8206C88.74 14.7451 89.178 14.6649 89.6887 14.5799C90.0115 14.5262 90.39 14.4648 90.794 14.4007C90.7903 14.5828 90.7837 14.7819 90.7742 15.0168C90.7572 15.4056 90.6874 15.7519 90.5628 16.0519M93.0869 11.6208C93.0472 11.2311 92.933 10.8499 92.7433 10.4772C92.395 9.77705 91.8645 9.27317 91.1471 8.96556C90.4297 8.65795 89.6 8.50414 88.6579 8.50414C87.4072 8.50414 86.4141 8.7759 85.6779 9.31846C84.9416 9.86197 84.4432 10.5819 84.1808 11.4783L86.3405 12.1558C86.518 11.6123 86.8285 11.2292 87.2741 11.0066C87.7187 10.7848 88.1803 10.6735 88.6579 10.6735C89.4499 10.6735 90.0134 10.8471 90.3466 11.1934C90.6232 11.4802 90.7761 11.9077 90.8195 12.4587C90.4023 12.5201 89.9728 12.5852 89.5764 12.6409C88.9052 12.7362 88.2831 12.839 87.7111 12.9504C87.1372 13.0617 86.6388 13.1863 86.2131 13.3231C85.6505 13.5137 85.1927 13.7571 84.8387 14.0544C84.4856 14.3525 84.2232 14.7064 84.0533 15.115C83.8825 15.5235 83.7975 15.984 83.7975 16.4945C83.7975 17.0767 83.9334 17.6098 84.2053 18.0939C84.4772 18.5789 84.8783 18.9658 85.4079 19.2564C85.9384 19.548 86.5859 19.6933 87.3524 19.6933C88.3077 19.6933 89.1044 19.5159 89.7434 19.1592C90.2343 18.8846 90.677 18.4864 91.0735 17.9693L91.0735 19.3998L93.1454 19.3998L93.1454 12.8919C93.1454 12.4342 93.1256 12.0096 93.0869 11.6208" id="Fill-8" fill="#000000" fill-rule="evenodd" stroke="none" />
    <path d="M94.5608 19.4003L96.9272 19.4003L96.9272 8.79902L94.5608 8.79902L94.5608 19.4003ZM94.5608 7.18924L96.9272 7.18924L96.9272 5.01992L94.5608 5.01992L94.5608 7.18924Z" id="Fill-9" fill="#000000" fill-rule="evenodd" stroke="none" />
    <g id="Group-14">
      <path d="M13.6793 14.4386L13.6047 14.364L13.769 14.4027C14.1428 14.4905 14.5355 14.3791 14.8064 14.1074L16.1864 12.7279C16.6197 12.2957 16.6197 11.5937 16.1864 11.1605L14.5081 9.48284C14.0758 9.05067 13.3735 9.05067 12.9411 9.48284L7.98163 14.4405C7.54931 14.8726 6.8489 14.8726 6.41657 14.4424L6.33728 14.3631L6.52607 14.415C6.90931 14.5188 7.31993 14.4103 7.60028 14.13L9.00393 12.7279C9.4372 12.2957 9.4372 11.5937 9.00393 11.1605L7.32465 9.48189C6.89232 9.04973 6.19191 9.04878 5.75864 9.48001L5.75864 9.48001C5.5538 9.68477 5.43864 9.96124 5.4377 10.2509L5.4292 15.8379C5.4292 16.1333 5.54625 16.4154 5.75392 16.624L8.23839 19.1066C8.67071 19.5397 9.37301 19.5397 9.80534 19.1066L12.6532 16.2597L15.5011 19.1066C15.9344 19.5397 16.6357 19.5397 17.069 19.1066L21.7717 14.4056C21.9794 14.198 22.0965 13.9158 22.0965 13.6224L22.0965 10.267C22.0965 9.27996 20.9024 8.78552 20.2038 9.48284L15.2472 14.4386C14.8139 14.8717 14.1126 14.8717 13.6793 14.4386" id="Fill-10" fill="#000000" fill-rule="evenodd" stroke="none" />
      <path d="M10.9271 0C7.26367 0.00849235 5.86096 0.391592 4.49602 1.10684L4.49602 1.10684L4.41201 1.15118C3.00647 1.90323 1.90394 3.00629 1.15161 4.4113L1.15161 4.4113C0.400233 5.81631 0 7.21378 0 11.0372L0 11.0372L0 16.077C0.00755157 19.739 0.391738 21.1412 1.10631 22.5057L1.10631 22.5057L1.15161 22.5896C1.90394 23.9947 3.00647 25.0968 4.41201 25.8488L4.41201 25.8488C5.78922 26.5848 7.15983 26.984 10.8138 27L10.8138 27L11.0404 27L15.9687 27C19.7172 27 21.135 26.6169 22.5131 25.8941L22.5131 25.8941L22.5971 25.8488C24.0027 25.0968 25.1061 23.9947 25.8585 22.5896L25.8585 22.5896C26.5947 21.2129 26.994 19.8428 27.0091 16.1902L27.0091 16.1902L27.0101 15.9637L27.0101 11.0372C27.0101 7.29021 26.6259 5.87293 25.9028 4.49528L25.9028 4.49528L25.8585 4.4113C25.1061 3.00629 24.0027 1.90323 22.5971 1.15118L22.5971 1.15118C21.1916 0.400084 19.7936 0 15.9687 0L15.9687 0L10.9271 0ZM16.0679 1.0455C19.3282 1.05022 20.6941 1.31914 22.1044 2.07308L22.1044 2.07308C23.3277 2.72793 24.2811 3.68096 24.9362 4.90386L24.9362 4.90386L24.9787 4.98501C25.7018 6.3636 25.9642 7.762 25.9642 11.0372L25.9642 11.0372L25.9642 15.9637L25.9632 16.1883C25.95 19.3597 25.6829 20.7006 24.9362 22.0971L24.9362 22.0971C24.2811 23.32 23.3277 24.273 22.1044 24.9269L22.1044 24.9269L22.0232 24.9694C20.6441 25.6931 19.2452 25.9554 15.9687 25.9554L15.9687 25.9554L11.0404 25.9554L10.8157 25.9545C7.64313 25.9413 6.30179 25.6733 4.90475 24.9269L4.90475 24.9269C3.68139 24.273 2.72801 23.32 2.07385 22.0971L2.07385 22.0971L2.03137 22.0159C1.31397 20.6506 1.05156 19.272 1.04495 16.076L1.04495 16.076L1.04495 11.0372C1.04495 7.70728 1.31209 6.32774 2.07385 4.90386L2.07385 4.90386C2.72801 3.68096 3.68139 2.72793 4.90475 2.07308L4.90475 2.07308L4.98592 2.03061C6.35182 1.31443 7.73092 1.05211 10.9281 1.0455L10.9281 1.0455L10.9271 1.0455L10.9281 1.0455L16.0679 1.0455Z" id="Clip-13" fill="#000000" fill-rule="evenodd" stroke="none" />
    </g>
  </g>
</svg>